<svg xmlns="http://www.w3.org/2000/svg" width="512" height="512" viewBox="0 0 512 512" version="1.1">
	<path d="M 239 14.987 C 200.161 18.016, 158.721 32.489, 125.078 54.776 C 74.279 88.430, 38.469 138.795, 24.669 196 C 19.496 217.442, 18.503 226.703, 18.503 253.500 C 18.503 281.358, 19.488 289.732, 25.666 314.357 C 35.620 354.039, 53.388 388.553, 78.173 416.353 L 82.500 421.206 92 414.730 C 102.989 407.239, 114.177 401.379, 121.938 399.050 C 127.330 397.432, 127.400 397.359, 130.174 390.592 C 133.709 381.966, 142.942 368.018, 147.727 364.073 C 152.610 360.048, 158.869 357.980, 168.264 357.286 L 176.027 356.712 172.514 362.547 C 170.581 365.757, 169 368.925, 169 369.588 C 169 371.168, 180.519 381.326, 190.016 388.122 C 194.149 391.080, 203.712 396.805, 211.266 400.846 C 218.820 404.886, 225 408.356, 225 408.558 C 225 412.199, 207.425 445, 205.474 445 C 204.821 445, 197.654 438.025, 189.548 429.500 C 175.175 414.384, 169.410 409.945, 173.788 417.365 C 181.820 430.978, 202.586 456, 205.851 456 C 207.273 456, 211.086 451.191, 216.072 443.111 C 218.486 439.200, 220.770 436, 221.149 436 C 221.529 436, 224.238 438.176, 227.169 440.836 C 234.161 447.179, 235.803 448.025, 238.860 446.863 C 242.330 445.544, 243.306 447.048, 241.595 451.075 C 240.238 454.267, 240.297 454.772, 242.458 458.500 C 243.733 460.700, 245.742 465.650, 246.921 469.500 C 248.100 473.350, 250.448 480.182, 252.139 484.682 L 255.214 492.864 261.528 493.540 C 265 493.912, 268.266 493.954, 268.784 493.633 C 269.674 493.083, 259.732 463.284, 256.650 457.261 C 255.872 455.742, 254.905 452.475, 254.500 450 C 254.095 447.525, 253.186 444.370, 252.479 442.988 C 251.413 440.902, 251.444 440, 252.664 437.671 C 253.664 435.764, 254.512 435.156, 255.317 435.770 C 255.968 436.267, 260.226 439.673, 264.780 443.337 C 269.980 447.521, 273.979 450, 275.530 450 C 276.888 450, 278 449.607, 278 449.126 C 278 445.855, 269.143 425.120, 262.141 412 C 257.927 404.102, 254.842 399.827, 249.691 394.750 C 241.880 387.049, 242.803 386.040, 252.630 391.536 C 257.679 394.359, 261.897 398.331, 264.612 402.820 C 264.719 402.995, 267.437 403.819, 270.653 404.650 C 277.992 406.546, 307.762 420.460, 310.658 423.348 C 313.418 426.100, 323.728 445.685, 329.971 460.032 C 332.627 466.138, 335.029 471.362, 335.308 471.641 C 335.587 471.920, 340.244 470.298, 345.657 468.037 C 361.753 461.315, 374.790 453.031, 391.921 438.640 C 399.208 432.518, 401.699 430.940, 402.921 431.670 C 403.789 432.190, 405.818 435.402, 407.428 438.808 C 409.039 442.213, 410.654 445, 411.018 445 C 412.127 445, 413.991 437.798, 414.253 432.500 L 414.500 427.500 419.250 427.742 C 421.863 427.876, 424 427.745, 424 427.453 C 424 425.806, 419.224 417.827, 415.712 413.607 C 412.899 410.227, 411.435 407.366, 410.978 404.357 C 410.615 401.961, 410.674 400, 411.110 400 C 411.546 400, 414.494 400.675, 417.661 401.500 C 424.273 403.222, 427.862 403.373, 430 402.019 C 431.314 401.187, 431.276 400.724, 429.691 398.285 C 426.799 393.833, 423 385.120, 423 382.940 C 423 379.888, 425.159 379.665, 432.763 381.929 C 436.587 383.068, 440.005 384, 440.358 384 C 441.280 384, 441.149 378.081, 440.100 372.386 C 438.196 362.046, 437.821 353.570, 439.187 351.774 C 440.187 350.459, 443.598 349.689, 453.500 348.541 C 473.956 346.171, 476.146 345.784, 476.658 344.449 C 476.923 343.759, 474.022 338.988, 470.212 333.847 C 466.401 328.706, 459.529 318.694, 454.940 311.597 C 446.946 299.235, 446.678 298.636, 448.548 297.309 C 449.622 296.548, 455.900 292.373, 462.500 288.033 C 475.490 279.490, 486 271.479, 486 270.120 C 486 269.651, 477.675 263.991, 467.500 257.540 C 452.532 248.051, 449 245.386, 449 243.581 C 449 242.354, 451.075 238.683, 453.610 235.425 C 456.146 232.166, 462.726 221.850, 468.233 212.500 C 473.740 203.150, 479.456 193.469, 480.935 190.986 C 483.434 186.792, 483.541 186.155, 482.452 181.986 C 478.259 165.939, 464.864 136.901, 454.321 121 C 437.140 95.089, 412.234 70.582, 385 52.791 C 363.163 38.524, 332.178 25.559, 306.960 20.135 C 285.617 15.545, 258.345 13.479, 239 14.987 M 225.237 68.319 C 223.483 70.762, 219.225 75.666, 215.774 79.217 C 210.788 84.349, 208.537 85.913, 204.807 86.837 C 198.104 88.498, 195.972 88.327, 182 85 C 175.125 83.363, 168.891 82.019, 168.147 82.012 C 167.074 82.002, 166.910 83.706, 167.350 90.250 C 167.655 94.787, 168.210 100.269, 168.583 102.430 C 170.308 112.433, 159.369 119.693, 139.112 121.987 C 126.880 123.373, 125 124.315, 125 129.055 C 125 136.841, 131.993 154.589, 138.056 162.191 C 139.675 164.222, 140.999 166.247, 140.998 166.691 C 140.997 167.136, 138.912 168.817, 136.365 170.426 C 129.076 175.031, 120.664 183.365, 117.575 189.040 C 115.162 193.472, 114.825 195.013, 115.286 199.482 C 116.183 208.177, 124.182 221.224, 132.511 227.576 C 135.994 230.233, 136.211 230.270, 139.416 228.742 C 141.235 227.874, 144.778 226.856, 147.289 226.479 L 151.854 225.795 153.041 218.647 C 155.666 202.846, 160.758 187.965, 169.688 170 C 176.968 155.352, 179.298 151.604, 183.983 147 C 195.398 135.781, 213.195 125.370, 229.500 120.373 C 237.715 117.855, 239.895 117.614, 254.500 117.603 C 269.391 117.592, 271.089 117.787, 279 120.411 C 290.304 124.161, 293.900 126.055, 304.206 133.688 C 317.618 143.621, 320.437 147.385, 323.945 160.045 C 325.734 166.499, 329.008 172, 331.061 172 C 331.454 172, 332.927 165.813, 334.337 158.250 C 338.578 135.488, 338.529 136.562, 335.436 134.128 C 333.953 132.962, 330.885 131.539, 328.619 130.968 C 321.296 129.122, 315.988 126.861, 312.924 124.283 C 310.047 121.862, 309.954 121.530, 310.584 115.957 C 311.089 111.500, 310.756 108.556, 309.154 103.280 C 306.901 95.863, 298.773 83.208, 294.437 80.367 C 292.019 78.782, 291.795 78.817, 289.205 81.176 C 287.717 82.532, 284.050 85.859, 281.055 88.571 C 278.060 91.282, 274.478 94.586, 273.095 95.914 L 270.581 98.328 267.582 94.414 C 261.026 85.856, 247.373 73.459, 239.785 69.173 C 229.060 63.114, 228.978 63.110, 225.237 68.319 M 244.276 126.109 C 228.273 127.952, 208.126 138.022, 195.475 150.500 C 188.101 157.774, 186.713 159.805, 180.182 172.890 C 172.232 188.815, 169.594 196.390, 165.439 215.213 L 162.634 227.925 167.333 232.062 C 169.917 234.336, 173.149 238.105, 174.515 240.435 C 177.273 245.142, 181 258.489, 181 263.660 C 181 267.756, 178.029 271.082, 175.063 270.306 C 172.909 269.743, 172.526 268.725, 171.509 260.852 C 170.701 254.601, 164.012 241.030, 160.128 237.761 C 153.492 232.177, 143.434 233.596, 136.301 241.124 C 131.723 245.955, 129.730 251.395, 129.751 259 C 129.800 276.469, 143.779 292.012, 158.353 290.804 C 161.705 290.526, 164.853 289.529, 166.835 288.118 C 170.580 285.451, 172 286.021, 172 290.191 C 172 292.438, 171.008 294.200, 168.308 296.746 L 164.616 300.228 166.429 307.364 C 171.896 328.879, 175.347 335.782, 186.079 346.662 C 202.400 363.210, 225.591 373, 248.468 373 C 263.557 373, 275.717 369.440, 287.950 361.443 C 289.903 360.166, 292.704 358.829, 294.175 358.471 C 297.918 357.561, 304.541 351.639, 307.542 346.518 C 310.611 341.281, 311.686 333.608, 310.045 328.638 C 309.385 326.637, 308.464 325, 307.999 325 C 306.019 325, 300.759 330.590, 298.714 334.870 C 297.282 337.864, 295.767 339.605, 294.426 339.796 C 292.556 340.064, 292.359 339.600, 292.426 335.096 C 292.493 330.588, 292.117 329.706, 288.583 326.087 C 282.983 320.349, 277.933 318.866, 262 318.282 C 251.531 317.898, 247.114 318.149, 242.326 319.401 C 233.768 321.639, 223.428 326.436, 220.611 329.474 L 218.254 332.018 213.399 328.759 C 206.737 324.286, 203.293 317.366, 201.786 305.426 C 201.157 300.447, 200.934 295.614, 201.290 294.686 C 202.250 292.186, 205.572 292.642, 207.703 295.566 C 210.681 299.655, 215.933 299.811, 225.285 296.090 C 237.361 291.286, 240.791 290.785, 252.794 292.078 C 258.604 292.703, 265.190 293.880, 267.429 294.693 C 269.898 295.590, 274.649 296.124, 279.501 296.051 C 286.958 295.939, 287.893 296.166, 293.251 299.392 L 299 302.854 299 299.896 C 299 296.318, 301.469 295.041, 303.828 297.398 C 305.166 298.735, 305.500 301.048, 305.500 308.967 L 305.500 318.866 307.761 316.748 C 310.695 314.001, 312.191 308.272, 312.332 299.247 C 312.424 293.388, 312.770 291.890, 314.131 291.459 C 317.279 290.459, 323.851 282.267, 325.055 277.841 C 326.550 272.344, 325.687 260.126, 323.294 252.909 C 321.613 247.842, 321.310 247.517, 318.500 247.767 C 311.615 248.379, 311.204 248.702, 310.015 254.428 C 307.511 266.490, 294.259 277.231, 281.880 277.231 C 276.280 277.231, 267.815 273.009, 261.750 267.191 C 257.781 263.384, 257.094 260.997, 259.414 259.071 C 260.534 258.141, 262.528 258.763, 268.988 262.054 C 276.719 265.993, 277.527 266.192, 284.416 265.844 C 290.448 265.539, 292.291 265.015, 295.241 262.766 C 304.818 255.460, 305.542 238.657, 296.688 229.151 C 293.678 225.919, 285.153 221.727, 282.829 222.334 C 281.358 222.719, 281.047 222.427, 281.478 221.069 C 281.786 220.099, 282.718 215.750, 283.550 211.405 C 285.470 201.367, 288.129 195.901, 293.205 191.557 C 297.430 187.940, 304.516 185, 309.009 185 C 310.467 185, 313.875 186.123, 316.581 187.496 C 319.286 188.869, 321.837 189.994, 322.250 189.996 C 323.612 190.003, 323.030 182.115, 321.360 177.942 C 319.303 172.800, 317.252 172, 306.126 172 C 295.983 172, 293.008 170.723, 294.902 167.183 C 296.455 164.282, 299.753 163.611, 308.546 164.408 L 315.918 165.076 314.005 159.516 C 310.187 148.416, 301.628 140.048, 287.198 133.304 C 273.728 127.009, 258.552 124.465, 244.276 126.109 M 400.279 156.517 C 395.799 160.101, 385.877 169.595, 378.229 177.613 L 364.324 192.193 354.412 179.925 C 348.960 173.177, 344.025 167.501, 343.444 167.310 C 342.863 167.119, 341.805 169.234, 341.094 172.011 L 339.800 177.059 343.989 181.604 C 349.480 187.561, 352.189 193.916, 352.785 202.234 C 353.051 205.955, 353.492 209, 353.766 209 C 354.039 209, 358.366 207.571, 363.381 205.825 C 375.087 201.749, 386.856 201.384, 400.500 204.673 C 405.450 205.866, 412.875 207.131, 417 207.483 C 427.984 208.421, 435.283 209.839, 436.123 211.198 C 436.553 211.895, 435.629 213.797, 433.909 215.757 C 428.670 221.724, 432.299 222.464, 441.583 217.323 C 447.806 213.877, 467.715 193.653, 465.378 193.153 C 464.486 192.963, 459.573 193.300, 454.458 193.903 C 449.344 194.506, 438.125 195, 429.529 195 L 413.898 195 412.537 191.743 C 409.341 184.094, 407.316 159.857, 409.279 152.750 C 409.696 151.238, 409.675 150, 409.231 150 C 408.787 150, 404.759 152.933, 400.279 156.517 M 229.871 157.114 C 224.302 157.939, 216.844 161.119, 212.237 164.633 C 208.883 167.191, 203 174.526, 203 176.150 C 203 177.995, 206.370 176.833, 210.332 173.621 C 221.625 164.464, 232.580 162.674, 250.515 167.055 C 259.977 169.367, 262.585 169.246, 263.659 166.445 C 264.680 163.784, 261.640 161.895, 253.166 159.921 C 240.971 157.082, 234.971 156.359, 229.871 157.114 M 329.887 180.354 C 330.884 181.563, 331.121 183.728, 330.729 188.053 C 330.220 193.669, 330.410 194.408, 333.576 199.112 C 337.048 204.273, 339.975 212.351, 340.032 216.932 C 340.061 219.315, 340.162 219.370, 341.428 217.701 C 342.178 216.712, 343.317 213.112, 343.959 209.701 C 345.849 199.663, 343.294 191.298, 336.248 184.450 C 332.011 180.332, 327.441 177.389, 329.887 180.354 M 230 181.606 C 216.550 186.485, 208.634 198.636, 208.568 214.500 C 208.539 221.416, 208.958 223.397, 211.656 229.123 C 215.565 237.420, 220.904 243.394, 227.437 246.781 C 234.327 250.353, 246.234 250.575, 253 247.258 C 259.989 243.832, 264.359 239.681, 267.829 233.170 C 272.008 225.329, 273.191 218.878, 271.910 210.921 C 269.901 198.444, 263.773 189.289, 253.913 184.034 C 246.261 179.956, 237.110 179.026, 230 181.606 M 233.222 187.431 C 224.081 190.368, 217.532 198.759, 218.186 206.697 L 218.500 210.500 226.500 210.500 C 234.092 210.500, 234.517 210.618, 234.827 212.805 C 235.302 216.156, 233.381 217.928, 225.250 221.640 C 221.262 223.460, 218 225.382, 218 225.910 C 218 230.534, 223.504 237.328, 229.500 240.104 C 234.695 242.509, 240.246 242.477, 248.284 239.994 C 265.576 234.653, 270.003 214.308, 257.797 196.273 C 252.444 188.365, 242.007 184.609, 233.222 187.431 M 304.500 192.162 C 297.422 194.705, 289.543 205.760, 291.385 210.562 C 291.932 211.986, 292.899 212.172, 297.147 211.669 C 299.955 211.336, 303.095 211.516, 304.126 212.067 C 307.119 213.669, 306.455 217.550, 302.750 220.108 C 300.962 221.342, 299.322 222.489, 299.104 222.656 C 298.886 222.823, 300.613 225.027, 302.943 227.554 C 305.272 230.081, 308.059 234.140, 309.136 236.574 C 311.455 241.817, 312.935 242.080, 319.996 238.502 C 325.866 235.527, 329.499 230.599, 331.102 223.433 C 333.528 212.594, 329.216 202.738, 319 195.770 C 312.821 191.555, 308.903 190.580, 304.500 192.162 M 364.359 226.459 C 361.531 227.253, 355.231 229.680, 350.359 231.852 C 345.486 234.024, 340.150 236.089, 338.500 236.441 C 336.555 236.855, 334.494 238.496, 332.639 241.105 L 329.778 245.129 332.445 253.199 C 334.242 258.636, 335.133 263.523, 335.177 268.178 C 335.213 271.977, 335.525 274.933, 335.871 274.745 C 345.084 269.751, 348.452 268.762, 354.578 269.254 C 361.509 269.811, 367.387 272.644, 373.996 278.615 C 379.154 283.275, 382.098 283.064, 390.047 277.467 C 396.362 273.020, 403.953 270, 408.815 270 C 416.869 270, 426.057 276.459, 430.399 285.174 L 432.966 290.325 434.483 286.695 C 436.436 282.021, 436.413 274.397, 434.423 266.644 C 429.752 248.452, 417.570 235.369, 398.441 227.997 C 390.818 225.060, 372.310 224.224, 364.359 226.459 M 351.939 258.314 C 346.491 259.844, 341.117 262.854, 339.641 265.202 C 337.841 268.064, 339.595 268.296, 345.681 266.001 C 348.886 264.792, 355.016 263.559, 359.327 263.255 C 366.878 262.723, 371.255 260.829, 369.314 258.933 C 367.755 257.410, 356.576 257.011, 351.939 258.314 M 398.409 259.376 C 397.405 261.993, 399.639 263.694, 405.014 264.407 C 407.752 264.771, 412.057 265.953, 414.579 267.034 C 420.252 269.465, 420.209 269.467, 419.820 266.863 C 419.077 261.898, 400.001 255.227, 398.409 259.376 M 347.338 275.949 C 346.149 276.456, 344.881 277.800, 344.521 278.935 C 344.160 280.071, 343.231 281, 342.456 281 C 341.680 281, 340.329 282.095, 339.452 283.433 C 338.212 285.325, 338.104 286.325, 338.964 287.933 C 340.555 290.905, 344.743 290.658, 346.178 287.508 C 347.060 285.574, 347.615 285.265, 348.657 286.130 C 351.686 288.644, 348.885 295.974, 343.912 298.545 C 342.233 299.414, 338.528 300.284, 335.679 300.479 C 329.687 300.890, 329.138 301.851, 331.034 308.621 C 332.477 313.774, 337.894 319.150, 343.511 321.004 C 348.690 322.713, 359.511 321.807, 364.500 319.247 C 372.480 315.152, 376.013 308.852, 375.978 298.782 C 375.931 285.456, 368.159 277.088, 354.418 275.570 C 351.713 275.271, 348.527 275.442, 347.338 275.949 M 403.250 276.992 C 402.012 277.511, 401 278.363, 401 278.886 C 401 279.409, 399.424 280.811, 397.498 282.001 C 393.422 284.521, 391.986 288.415, 394.286 290.714 C 396.298 292.727, 400.648 291.683, 401.505 288.983 C 402.407 286.143, 404 287.532, 404 291.158 C 404 295.225, 399.491 299.352, 393.298 300.954 C 390.659 301.637, 387.883 302.383, 387.128 302.613 C 386.169 302.905, 385.940 303.952, 386.369 306.095 C 387.491 311.706, 390.270 316.150, 394.337 318.839 C 397.867 321.173, 399.363 321.500, 406.505 321.500 C 413.766 321.500, 415.110 321.194, 418.913 318.677 C 431.063 310.635, 430.507 286.118, 418.017 279.142 C 413.780 276.776, 406.346 275.693, 403.250 276.992 M 242.242 300.034 C 241 300.533, 239.440 302.135, 238.776 303.593 C 237.674 306.010, 237.829 306.453, 240.534 308.617 C 244.310 311.638, 248.393 311.704, 250.443 308.777 C 252.675 305.591, 252.374 303.439, 249.365 301.073 C 246.483 298.805, 245.615 298.679, 242.242 300.034 M 321.689 300.368 C 321.310 301.355, 321 304.288, 321 306.885 C 321 309.946, 320.100 313.413, 318.442 316.741 C 315.937 321.768, 315.920 321.943, 317.629 325.187 C 318.925 327.649, 319.356 330.755, 319.304 337.275 C 319.242 345.107, 319.461 346.209, 321.340 347.525 C 324.427 349.688, 325.580 349.411, 331.678 345.044 C 338.641 340.058, 343.482 338.325, 345.581 340.067 C 346.624 340.933, 346.766 341.634, 346.042 342.358 C 344.225 344.175, 344.914 346, 347.417 346 C 348.746 346, 354.934 347.863, 361.167 350.140 C 376.740 355.829, 383.401 355.980, 394.072 350.884 C 400.858 347.643, 409 341.078, 409 338.847 C 409 336.685, 413.913 338.315, 417 341.500 C 418.866 343.425, 420.928 345, 421.582 345 C 423.656 345, 426.053 338.300, 427.035 329.759 C 428.347 318.348, 428.409 318.524, 424.484 322.449 C 419.338 327.596, 415.386 329.278, 407.500 329.678 C 397.967 330.162, 391.076 327.751, 389.571 323.405 C 388.569 320.509, 380.307 310.208, 379.698 311.095 C 379.545 311.318, 378.538 313.226, 377.460 315.335 C 374.491 321.145, 367.977 326.632, 361.913 328.433 C 343.430 333.922, 326.658 323.974, 323.578 305.695 C 322.796 301.049, 322.139 299.196, 321.689 300.368 M 258 302 C 255.411 304.589, 255.479 305.570, 258.455 308.545 C 261.392 311.483, 265.990 311.773, 268.345 309.171 C 270.845 306.409, 270.350 304.184, 266.750 301.989 C 262.637 299.481, 260.516 299.484, 258 302 M 226.323 305.250 C 222.922 309.029, 222.947 310.425, 226.462 312.834 C 231.314 316.158, 235.878 313.722, 235.986 307.750 C 236.013 306.297, 231.978 303, 230.174 303 C 229.170 303, 227.437 304.012, 226.323 305.250 M 277 305 C 274.447 307.553, 274.471 309.471, 277.087 312.087 C 280.648 315.648, 287 312.715, 287 307.509 C 287 302.883, 280.698 301.302, 277 305 M 211.932 309.126 C 210.402 311.987, 212.136 315.721, 215.609 317.042 C 220.611 318.943, 223.714 313.453, 219.920 309.415 C 217.104 306.417, 213.453 306.285, 211.932 309.126 M 292.450 310.435 C 289.305 315.236, 292.560 322.018, 296.750 319.394 C 297.712 318.791, 298.645 317.077, 298.823 315.585 C 299.152 312.816, 296.724 308, 295 308 C 294.475 308, 293.328 309.096, 292.450 310.435 M 438 319.816 C 438 325.830, 437.710 332.269, 437.356 334.125 L 436.712 337.500 439.451 335 C 442.688 332.045, 445 327.904, 445 325.060 C 445 322.612, 440.152 310.212, 438.890 309.432 C 438.391 309.123, 438 313.681, 438 319.816 M 413 347.441 C 413 348.298, 413.450 349, 414 349 C 414.550 349, 415 348.577, 415 348.059 C 415 347.541, 414.550 346.840, 414 346.500 C 413.450 346.160, 413 346.584, 413 347.441 M 335.166 350.597 C 332.003 352.812, 332.608 356.397, 336.215 356.813 C 338.417 357.067, 339.052 356.642, 339.573 354.565 C 340.259 351.834, 339.587 349, 338.254 349 C 337.809 349, 336.419 349.718, 335.166 350.597 M 311.078 355.250 C 307.190 360.023, 306.846 360.892, 307.286 364.818 C 308.564 376.231, 322.130 393.507, 334.856 399.929 C 348.138 406.631, 367.137 408.939, 380.458 405.469 C 399.593 400.485, 413.051 385.964, 414.678 368.548 C 415.264 362.274, 415.173 361.820, 413.404 362.160 C 411.924 362.445, 411.356 363.706, 410.852 367.822 C 409.989 374.877, 407.716 377.359, 402.734 376.691 C 399.351 376.237, 398.800 376.485, 397.467 379.063 C 395.247 383.356, 392.166 385.936, 385.500 389.083 C 378.732 392.277, 367.679 394.357, 362.175 393.471 C 347.599 391.125, 338.173 386.832, 329.049 378.385 C 320.716 370.670, 318.211 366.123, 317.383 357.207 C 317.014 353.243, 316.407 350, 316.033 350 C 315.659 350, 313.430 352.363, 311.078 355.250 M 403.992 353.015 C 403.142 354.603, 403.243 355.156, 404.470 355.627 C 406.283 356.322, 409 354.374, 409 352.378 C 409 350.261, 405.207 350.744, 403.992 353.015 M 345.655 355.829 C 343.534 358.172, 343.570 359.300, 345.829 361.345 C 349.440 364.613, 355 362.888, 355 358.500 C 355 357.345, 354.460 355.860, 353.800 355.200 C 352.007 353.407, 347.534 353.752, 345.655 355.829 M 183.307 363.114 L 181.212 370.229 184.754 374.149 C 190.973 381.033, 216.397 396.233, 225.289 398.383 C 227.800 398.990, 228.231 398.692, 229.608 395.395 C 230.450 393.380, 231.398 388.642, 231.714 384.866 C 232.282 378.100, 232.255 378, 229.855 378 C 220.908 378, 202.227 369.715, 192.425 361.400 C 188.924 358.430, 185.912 356, 185.731 356 C 185.550 356, 184.459 359.201, 183.307 363.114 M 393.750 357.559 C 390.709 359.223, 390.418 360.018, 392.200 361.800 C 394.789 364.389, 398.427 362.681, 399.155 358.536 C 399.597 356.019, 397.318 355.606, 393.750 357.559 M 360.250 358.662 C 356.600 360.135, 362.141 366.342, 366.646 365.826 C 368.796 365.580, 369.585 364.897, 369.845 363.056 C 370.396 359.152, 365.075 356.715, 360.250 358.662 M 158.137 361.369 C 153.155 363.172, 147.816 368.080, 144.825 373.608 C 137.647 386.871, 124.372 437.735, 127.320 440.677 C 127.969 441.325, 133.675 444.201, 140 447.070 C 146.325 449.938, 152.034 452.702, 152.687 453.213 C 153.550 453.887, 153.025 454.899, 150.770 456.914 C 148.887 458.597, 147.892 460.276, 148.240 461.184 C 149.711 465.017, 200.916 488, 207.984 488 C 210.833 488, 210.526 486.675, 206.180 480.195 C 204.079 477.063, 200.617 471.575, 198.487 468 C 196.357 464.425, 190.798 455.650, 186.133 448.500 C 176.146 433.193, 173.004 426.644, 165.984 406.500 C 159.013 386.499, 158.858 382.154, 164.656 369.250 L 168.811 360 165.156 360.076 C 163.145 360.118, 159.987 360.700, 158.137 361.369 M 378.500 360.692 C 375.119 361.541, 374.520 362.812, 376.479 364.976 C 379.884 368.740, 386.677 366.793, 385.824 362.298 C 385.473 360.447, 382.273 359.745, 378.500 360.692 M 238.409 401.250 C 237.505 403.038, 236.031 405.400, 235.133 406.500 C 233.581 408.401, 233.712 408.714, 237.774 412.814 L 242.049 417.128 243.648 413.314 C 244.528 411.216, 245.484 407.753, 245.773 405.617 C 246.215 402.353, 245.917 401.440, 243.899 399.889 C 240.667 397.404, 240.307 397.493, 238.409 401.250 M 114.758 405.968 C 103.684 410.935, 85 422, 85 423.593 C 85 425.808, 112.208 450, 114.699 450 C 115.238 450, 116.704 446.288, 117.958 441.750 C 127.604 406.843, 128.497 401.980, 125.250 402.024 C 124.287 402.037, 119.566 403.812, 114.758 405.968 M 266.385 409.176 C 266.724 410.869, 271.951 421.016, 278 431.724 C 284.050 442.433, 289 451.527, 289 451.933 C 289 452.340, 286.188 453.454, 282.750 454.409 C 275.813 456.336, 273.047 458.261, 273.553 460.807 C 273.738 461.738, 274.142 464.075, 274.450 466 L 275.009 469.500 291.032 469.651 C 302.580 469.759, 307.496 470.167, 308.633 471.110 C 309.501 471.831, 311.934 476.150, 314.041 480.710 C 316.147 485.269, 318.364 489, 318.967 489 C 320.978 489, 321.134 486.304, 319.490 479.961 C 318.594 476.503, 316.985 467.120, 315.915 459.110 C 314.844 451.100, 313.018 440.018, 311.857 434.483 L 309.745 424.419 305.123 422.545 C 302.580 421.514, 294.401 417.865, 286.947 414.436 C 279.493 411.008, 271.678 407.729, 269.582 407.150 L 265.770 406.098 266.385 409.176" stroke="none" fill="black" fill-rule="evenodd"/>
</svg>